%TF.GenerationSoftware,KiCad,Pcbnew,(6.0.7-1)-1*%
%TF.CreationDate,2023-02-08T12:42:39-08:00*%
%TF.ProjectId,RCASwitcher,52434153-7769-4746-9368-65722e6b6963,rev?*%
%TF.SameCoordinates,Original*%
%TF.FileFunction,Legend,Top*%
%TF.FilePolarity,Positive*%
%FSLAX46Y46*%
G04 Gerber Fmt 4.6, Leading zero omitted, Abs format (unit mm)*
G04 Created by KiCad (PCBNEW (6.0.7-1)-1) date 2023-02-08 12:42:39*
%MOMM*%
%LPD*%
G01*
G04 APERTURE LIST*
%ADD10C,0.150000*%
G04 APERTURE END LIST*
D10*
%TO.C,SW3*%
X95666666Y-138404761D02*
X95809523Y-138452380D01*
X96047619Y-138452380D01*
X96142857Y-138404761D01*
X96190476Y-138357142D01*
X96238095Y-138261904D01*
X96238095Y-138166666D01*
X96190476Y-138071428D01*
X96142857Y-138023809D01*
X96047619Y-137976190D01*
X95857142Y-137928571D01*
X95761904Y-137880952D01*
X95714285Y-137833333D01*
X95666666Y-137738095D01*
X95666666Y-137642857D01*
X95714285Y-137547619D01*
X95761904Y-137500000D01*
X95857142Y-137452380D01*
X96095238Y-137452380D01*
X96238095Y-137500000D01*
X96571428Y-137452380D02*
X96809523Y-138452380D01*
X97000000Y-137738095D01*
X97190476Y-138452380D01*
X97428571Y-137452380D01*
X97714285Y-137452380D02*
X98333333Y-137452380D01*
X98000000Y-137833333D01*
X98142857Y-137833333D01*
X98238095Y-137880952D01*
X98285714Y-137928571D01*
X98333333Y-138023809D01*
X98333333Y-138261904D01*
X98285714Y-138357142D01*
X98238095Y-138404761D01*
X98142857Y-138452380D01*
X97857142Y-138452380D01*
X97761904Y-138404761D01*
X97714285Y-138357142D01*
%TO.C,SW2*%
X80666666Y-138404761D02*
X80809523Y-138452380D01*
X81047619Y-138452380D01*
X81142857Y-138404761D01*
X81190476Y-138357142D01*
X81238095Y-138261904D01*
X81238095Y-138166666D01*
X81190476Y-138071428D01*
X81142857Y-138023809D01*
X81047619Y-137976190D01*
X80857142Y-137928571D01*
X80761904Y-137880952D01*
X80714285Y-137833333D01*
X80666666Y-137738095D01*
X80666666Y-137642857D01*
X80714285Y-137547619D01*
X80761904Y-137500000D01*
X80857142Y-137452380D01*
X81095238Y-137452380D01*
X81238095Y-137500000D01*
X81571428Y-137452380D02*
X81809523Y-138452380D01*
X82000000Y-137738095D01*
X82190476Y-138452380D01*
X82428571Y-137452380D01*
X82761904Y-137547619D02*
X82809523Y-137500000D01*
X82904761Y-137452380D01*
X83142857Y-137452380D01*
X83238095Y-137500000D01*
X83285714Y-137547619D01*
X83333333Y-137642857D01*
X83333333Y-137738095D01*
X83285714Y-137880952D01*
X82714285Y-138452380D01*
X83333333Y-138452380D01*
%TO.C,J4*%
X99466666Y-77802380D02*
X99466666Y-78516666D01*
X99419047Y-78659523D01*
X99323809Y-78754761D01*
X99180952Y-78802380D01*
X99085714Y-78802380D01*
X100371428Y-78135714D02*
X100371428Y-78802380D01*
X100133333Y-77754761D02*
X99895238Y-78469047D01*
X100514285Y-78469047D01*
%TO.C,SW4*%
X110666666Y-138404761D02*
X110809523Y-138452380D01*
X111047619Y-138452380D01*
X111142857Y-138404761D01*
X111190476Y-138357142D01*
X111238095Y-138261904D01*
X111238095Y-138166666D01*
X111190476Y-138071428D01*
X111142857Y-138023809D01*
X111047619Y-137976190D01*
X110857142Y-137928571D01*
X110761904Y-137880952D01*
X110714285Y-137833333D01*
X110666666Y-137738095D01*
X110666666Y-137642857D01*
X110714285Y-137547619D01*
X110761904Y-137500000D01*
X110857142Y-137452380D01*
X111095238Y-137452380D01*
X111238095Y-137500000D01*
X111571428Y-137452380D02*
X111809523Y-138452380D01*
X112000000Y-137738095D01*
X112190476Y-138452380D01*
X112428571Y-137452380D01*
X113238095Y-137785714D02*
X113238095Y-138452380D01*
X113000000Y-137404761D02*
X112761904Y-138119047D01*
X113380952Y-138119047D01*
%TO.C,SW5*%
X125666666Y-138404761D02*
X125809523Y-138452380D01*
X126047619Y-138452380D01*
X126142857Y-138404761D01*
X126190476Y-138357142D01*
X126238095Y-138261904D01*
X126238095Y-138166666D01*
X126190476Y-138071428D01*
X126142857Y-138023809D01*
X126047619Y-137976190D01*
X125857142Y-137928571D01*
X125761904Y-137880952D01*
X125714285Y-137833333D01*
X125666666Y-137738095D01*
X125666666Y-137642857D01*
X125714285Y-137547619D01*
X125761904Y-137500000D01*
X125857142Y-137452380D01*
X126095238Y-137452380D01*
X126238095Y-137500000D01*
X126571428Y-137452380D02*
X126809523Y-138452380D01*
X127000000Y-137738095D01*
X127190476Y-138452380D01*
X127428571Y-137452380D01*
X128285714Y-137452380D02*
X127809523Y-137452380D01*
X127761904Y-137928571D01*
X127809523Y-137880952D01*
X127904761Y-137833333D01*
X128142857Y-137833333D01*
X128238095Y-137880952D01*
X128285714Y-137928571D01*
X128333333Y-138023809D01*
X128333333Y-138261904D01*
X128285714Y-138357142D01*
X128238095Y-138404761D01*
X128142857Y-138452380D01*
X127904761Y-138452380D01*
X127809523Y-138404761D01*
X127761904Y-138357142D01*
%TO.C,J6*%
X142466666Y-77802380D02*
X142466666Y-78516666D01*
X142419047Y-78659523D01*
X142323809Y-78754761D01*
X142180952Y-78802380D01*
X142085714Y-78802380D01*
X143371428Y-77802380D02*
X143180952Y-77802380D01*
X143085714Y-77850000D01*
X143038095Y-77897619D01*
X142942857Y-78040476D01*
X142895238Y-78230952D01*
X142895238Y-78611904D01*
X142942857Y-78707142D01*
X142990476Y-78754761D01*
X143085714Y-78802380D01*
X143276190Y-78802380D01*
X143371428Y-78754761D01*
X143419047Y-78707142D01*
X143466666Y-78611904D01*
X143466666Y-78373809D01*
X143419047Y-78278571D01*
X143371428Y-78230952D01*
X143276190Y-78183333D01*
X143085714Y-78183333D01*
X142990476Y-78230952D01*
X142942857Y-78278571D01*
X142895238Y-78373809D01*
%TO.C,SW1*%
X65666666Y-138404761D02*
X65809523Y-138452380D01*
X66047619Y-138452380D01*
X66142857Y-138404761D01*
X66190476Y-138357142D01*
X66238095Y-138261904D01*
X66238095Y-138166666D01*
X66190476Y-138071428D01*
X66142857Y-138023809D01*
X66047619Y-137976190D01*
X65857142Y-137928571D01*
X65761904Y-137880952D01*
X65714285Y-137833333D01*
X65666666Y-137738095D01*
X65666666Y-137642857D01*
X65714285Y-137547619D01*
X65761904Y-137500000D01*
X65857142Y-137452380D01*
X66095238Y-137452380D01*
X66238095Y-137500000D01*
X66571428Y-137452380D02*
X66809523Y-138452380D01*
X67000000Y-137738095D01*
X67190476Y-138452380D01*
X67428571Y-137452380D01*
X68333333Y-138452380D02*
X67761904Y-138452380D01*
X68047619Y-138452380D02*
X68047619Y-137452380D01*
X67952380Y-137595238D01*
X67857142Y-137690476D01*
X67761904Y-137738095D01*
%TO.C,J2*%
X56466666Y-77802380D02*
X56466666Y-78516666D01*
X56419047Y-78659523D01*
X56323809Y-78754761D01*
X56180952Y-78802380D01*
X56085714Y-78802380D01*
X56895238Y-77897619D02*
X56942857Y-77850000D01*
X57038095Y-77802380D01*
X57276190Y-77802380D01*
X57371428Y-77850000D01*
X57419047Y-77897619D01*
X57466666Y-77992857D01*
X57466666Y-78088095D01*
X57419047Y-78230952D01*
X56847619Y-78802380D01*
X57466666Y-78802380D01*
%TD*%
M02*
