%TF.GenerationSoftware,KiCad,Pcbnew,(6.0.7-1)-1*%
%TF.CreationDate,2023-02-08T12:42:39-08:00*%
%TF.ProjectId,RCASwitcher,52434153-7769-4746-9368-65722e6b6963,rev?*%
%TF.SameCoordinates,Original*%
%TF.FileFunction,Copper,L2,Bot*%
%TF.FilePolarity,Positive*%
%FSLAX46Y46*%
G04 Gerber Fmt 4.6, Leading zero omitted, Abs format (unit mm)*
G04 Created by KiCad (PCBNEW (6.0.7-1)-1) date 2023-02-08 12:42:39*
%MOMM*%
%LPD*%
G01*
G04 APERTURE LIST*
%TA.AperFunction,ComponentPad*%
%ADD10C,2.500000*%
%TD*%
%TA.AperFunction,ComponentPad*%
%ADD11O,2.000000X3.000000*%
%TD*%
%TA.AperFunction,ViaPad*%
%ADD12C,0.800000*%
%TD*%
%TA.AperFunction,Conductor*%
%ADD13C,0.250000*%
%TD*%
G04 APERTURE END LIST*
D10*
%TO.P,SW3,1,A*%
%TO.N,unconnected-(SW3-Pad1)*%
X93750000Y-138000000D03*
%TO.P,SW3,2,OA*%
%TO.N,/Y_out*%
X93750000Y-134000000D03*
%TO.P,SW3,3,C*%
%TO.N,/Y_3*%
X93750000Y-130000000D03*
%TO.P,SW3,4,A*%
%TO.N,unconnected-(SW3-Pad4)*%
X93750000Y-126000000D03*
%TO.P,SW3,5,B*%
%TO.N,/Pb_out*%
X93750000Y-122000000D03*
%TO.P,SW3,6,C*%
%TO.N,/Pb_3*%
X93750000Y-118000000D03*
%TO.P,SW3,7,A*%
%TO.N,unconnected-(SW3-Pad7)*%
X93750000Y-114000000D03*
%TO.P,SW3,8,B*%
%TO.N,/Pr_out*%
X93750000Y-110000000D03*
%TO.P,SW3,9,C*%
%TO.N,/Pr_3*%
X93750000Y-106000000D03*
%TO.P,SW3,10,A*%
%TO.N,unconnected-(SW3-Pad10)*%
X100250000Y-138000000D03*
%TO.P,SW3,11,C*%
%TO.N,/L_out*%
X100250000Y-134000000D03*
%TO.P,SW3,12,C*%
%TO.N,/L_3*%
X100250000Y-130000000D03*
%TO.P,SW3,13,A*%
%TO.N,unconnected-(SW3-Pad13)*%
X100250000Y-126000000D03*
%TO.P,SW3,14,B*%
%TO.N,/R_out*%
X100250000Y-122000000D03*
%TO.P,SW3,15,C*%
%TO.N,/R_3*%
X100250000Y-118000000D03*
%TO.P,SW3,16,A*%
%TO.N,unconnected-(SW3-Pad16)*%
X100250000Y-114000000D03*
%TO.P,SW3,17,B*%
%TO.N,/GND_out*%
X100250000Y-110000000D03*
%TO.P,SW3,18,C*%
%TO.N,/GND_3*%
X100250000Y-106000000D03*
%TD*%
%TO.P,SW2,1,A*%
%TO.N,unconnected-(SW2-Pad1)*%
X78750000Y-138000000D03*
%TO.P,SW2,2,OA*%
%TO.N,/Y_out*%
X78750000Y-134000000D03*
%TO.P,SW2,3,C*%
%TO.N,/Y_2*%
X78750000Y-130000000D03*
%TO.P,SW2,4,A*%
%TO.N,unconnected-(SW2-Pad4)*%
X78750000Y-126000000D03*
%TO.P,SW2,5,B*%
%TO.N,/Pb_out*%
X78750000Y-122000000D03*
%TO.P,SW2,6,C*%
%TO.N,/Pb_2*%
X78750000Y-118000000D03*
%TO.P,SW2,7,A*%
%TO.N,unconnected-(SW2-Pad7)*%
X78750000Y-114000000D03*
%TO.P,SW2,8,B*%
%TO.N,/Pr_out*%
X78750000Y-110000000D03*
%TO.P,SW2,9,C*%
%TO.N,/Pr_2*%
X78750000Y-106000000D03*
%TO.P,SW2,10,A*%
%TO.N,unconnected-(SW2-Pad10)*%
X85250000Y-138000000D03*
%TO.P,SW2,11,C*%
%TO.N,/L_out*%
X85250000Y-134000000D03*
%TO.P,SW2,12,C*%
%TO.N,/L_2*%
X85250000Y-130000000D03*
%TO.P,SW2,13,A*%
%TO.N,unconnected-(SW2-Pad13)*%
X85250000Y-126000000D03*
%TO.P,SW2,14,B*%
%TO.N,/R_out*%
X85250000Y-122000000D03*
%TO.P,SW2,15,C*%
%TO.N,/R_2*%
X85250000Y-118000000D03*
%TO.P,SW2,16,A*%
%TO.N,unconnected-(SW2-Pad16)*%
X85250000Y-114000000D03*
%TO.P,SW2,17,B*%
%TO.N,/GND_out*%
X85250000Y-110000000D03*
%TO.P,SW2,18,C*%
%TO.N,/GND_2*%
X85250000Y-106000000D03*
%TD*%
%TO.P,J4,1,Y*%
%TO.N,/Y_4*%
X85750000Y-74500000D03*
%TO.P,J4,2,Pb*%
%TO.N,/Pb_4*%
X99750000Y-74500000D03*
%TO.P,J4,3,Pr*%
%TO.N,/Pr_4*%
X113750000Y-74500000D03*
%TO.P,J4,4,L*%
%TO.N,/L_4*%
X78250000Y-74500000D03*
%TO.P,J4,5,R*%
%TO.N,/R_4*%
X92250000Y-74500000D03*
%TO.P,J4,6,C*%
%TO.N,unconnected-(J4-Pad6)*%
X106250000Y-74500000D03*
D11*
%TO.P,J4,7,GND*%
%TO.N,/GND_4*%
X113750000Y-67100000D03*
%TO.P,J4,8,GND*%
X99750000Y-67100000D03*
%TO.P,J4,9,GND*%
X85750000Y-67100000D03*
%TD*%
D10*
%TO.P,SW4,1,A*%
%TO.N,unconnected-(SW4-Pad1)*%
X108750000Y-138000000D03*
%TO.P,SW4,2,OA*%
%TO.N,/Y_out*%
X108750000Y-134000000D03*
%TO.P,SW4,3,C*%
%TO.N,/Y_4*%
X108750000Y-130000000D03*
%TO.P,SW4,4,A*%
%TO.N,unconnected-(SW4-Pad4)*%
X108750000Y-126000000D03*
%TO.P,SW4,5,B*%
%TO.N,/Pb_out*%
X108750000Y-122000000D03*
%TO.P,SW4,6,C*%
%TO.N,/Pb_4*%
X108750000Y-118000000D03*
%TO.P,SW4,7,A*%
%TO.N,unconnected-(SW4-Pad7)*%
X108750000Y-114000000D03*
%TO.P,SW4,8,B*%
%TO.N,/Pr_out*%
X108750000Y-110000000D03*
%TO.P,SW4,9,C*%
%TO.N,/Pr_4*%
X108750000Y-106000000D03*
%TO.P,SW4,10,A*%
%TO.N,unconnected-(SW4-Pad10)*%
X115250000Y-138000000D03*
%TO.P,SW4,11,C*%
%TO.N,/L_out*%
X115250000Y-134000000D03*
%TO.P,SW4,12,C*%
%TO.N,/L_4*%
X115250000Y-130000000D03*
%TO.P,SW4,13,A*%
%TO.N,unconnected-(SW4-Pad13)*%
X115250000Y-126000000D03*
%TO.P,SW4,14,B*%
%TO.N,/R_out*%
X115250000Y-122000000D03*
%TO.P,SW4,15,C*%
%TO.N,/R_4*%
X115250000Y-118000000D03*
%TO.P,SW4,16,A*%
%TO.N,unconnected-(SW4-Pad16)*%
X115250000Y-114000000D03*
%TO.P,SW4,17,B*%
%TO.N,/GND_out*%
X115250000Y-110000000D03*
%TO.P,SW4,18,C*%
%TO.N,/GND_4*%
X115250000Y-106000000D03*
%TD*%
%TO.P,SW5,1,A*%
%TO.N,unconnected-(SW5-Pad1)*%
X123750000Y-138000000D03*
%TO.P,SW5,2,OA*%
%TO.N,/Y_out*%
X123750000Y-134000000D03*
%TO.P,SW5,3,C*%
%TO.N,/Y_5*%
X123750000Y-130000000D03*
%TO.P,SW5,4,A*%
%TO.N,unconnected-(SW5-Pad4)*%
X123750000Y-126000000D03*
%TO.P,SW5,5,B*%
%TO.N,/Pb_out*%
X123750000Y-122000000D03*
%TO.P,SW5,6,C*%
%TO.N,/Pb_5*%
X123750000Y-118000000D03*
%TO.P,SW5,7,A*%
%TO.N,unconnected-(SW5-Pad7)*%
X123750000Y-114000000D03*
%TO.P,SW5,8,B*%
%TO.N,/Pr_out*%
X123750000Y-110000000D03*
%TO.P,SW5,9,C*%
%TO.N,/Pr_5*%
X123750000Y-106000000D03*
%TO.P,SW5,10,A*%
%TO.N,unconnected-(SW5-Pad10)*%
X130250000Y-138000000D03*
%TO.P,SW5,11,C*%
%TO.N,/L_out*%
X130250000Y-134000000D03*
%TO.P,SW5,12,C*%
%TO.N,/L_5*%
X130250000Y-130000000D03*
%TO.P,SW5,13,A*%
%TO.N,unconnected-(SW5-Pad13)*%
X130250000Y-126000000D03*
%TO.P,SW5,14,B*%
%TO.N,/R_out*%
X130250000Y-122000000D03*
%TO.P,SW5,15,C*%
%TO.N,/R_5*%
X130250000Y-118000000D03*
%TO.P,SW5,16,A*%
%TO.N,unconnected-(SW5-Pad16)*%
X130250000Y-114000000D03*
%TO.P,SW5,17,B*%
%TO.N,/GND_out*%
X130250000Y-110000000D03*
%TO.P,SW5,18,C*%
%TO.N,/GND_5*%
X130250000Y-106000000D03*
%TD*%
%TO.P,J6,1,Y*%
%TO.N,/Y_out*%
X128750000Y-74500000D03*
%TO.P,J6,2,Pb*%
%TO.N,/Pb_out*%
X142750000Y-74500000D03*
%TO.P,J6,3,Pr*%
%TO.N,/Pr_out*%
X156750000Y-74500000D03*
%TO.P,J6,4,L*%
%TO.N,/L_out*%
X121250000Y-74500000D03*
%TO.P,J6,5,R*%
%TO.N,/R_out*%
X135250000Y-74500000D03*
%TO.P,J6,6,C*%
%TO.N,unconnected-(J6-Pad6)*%
X149250000Y-74500000D03*
D11*
%TO.P,J6,7,GND*%
%TO.N,/GND_out*%
X156750000Y-67100000D03*
%TO.P,J6,8,GND*%
X142750000Y-67100000D03*
%TO.P,J6,9,GND*%
X128750000Y-67100000D03*
%TD*%
D10*
%TO.P,SW1,1,A*%
%TO.N,unconnected-(SW1-Pad1)*%
X63750000Y-138000000D03*
%TO.P,SW1,2,OA*%
%TO.N,/Y_out*%
X63750000Y-134000000D03*
%TO.P,SW1,3,C*%
%TO.N,/Y_1*%
X63750000Y-130000000D03*
%TO.P,SW1,4,A*%
%TO.N,unconnected-(SW1-Pad4)*%
X63750000Y-126000000D03*
%TO.P,SW1,5,B*%
%TO.N,/Pb_out*%
X63750000Y-122000000D03*
%TO.P,SW1,6,C*%
%TO.N,/Pb_1*%
X63750000Y-118000000D03*
%TO.P,SW1,7,A*%
%TO.N,unconnected-(SW1-Pad7)*%
X63750000Y-114000000D03*
%TO.P,SW1,8,B*%
%TO.N,/Pr_out*%
X63750000Y-110000000D03*
%TO.P,SW1,9,C*%
%TO.N,/Pr_1*%
X63750000Y-106000000D03*
%TO.P,SW1,10,A*%
%TO.N,unconnected-(SW1-Pad10)*%
X70250000Y-138000000D03*
%TO.P,SW1,11,C*%
%TO.N,/L_out*%
X70250000Y-134000000D03*
%TO.P,SW1,12,C*%
%TO.N,/L_1*%
X70250000Y-130000000D03*
%TO.P,SW1,13,A*%
%TO.N,unconnected-(SW1-Pad13)*%
X70250000Y-126000000D03*
%TO.P,SW1,14,B*%
%TO.N,/R_out*%
X70250000Y-122000000D03*
%TO.P,SW1,15,C*%
%TO.N,/R_1*%
X70250000Y-118000000D03*
%TO.P,SW1,16,A*%
%TO.N,unconnected-(SW1-Pad16)*%
X70250000Y-114000000D03*
%TO.P,SW1,17,B*%
%TO.N,/GND_out*%
X70250000Y-110000000D03*
%TO.P,SW1,18,C*%
%TO.N,/GND_1*%
X70250000Y-106000000D03*
%TD*%
%TO.P,J2,1,Y*%
%TO.N,/Y_2*%
X42750000Y-74500000D03*
%TO.P,J2,2,Pb*%
%TO.N,/Pb_2*%
X56750000Y-74500000D03*
%TO.P,J2,3,Pr*%
%TO.N,/Pr_2*%
X70750000Y-74500000D03*
%TO.P,J2,4,L*%
%TO.N,/L_2*%
X35250000Y-74500000D03*
%TO.P,J2,5,R*%
%TO.N,/R_2*%
X49250000Y-74500000D03*
%TO.P,J2,6,C*%
%TO.N,unconnected-(J2-Pad6)*%
X63250000Y-74500000D03*
D11*
%TO.P,J2,7,GND*%
%TO.N,/GND_2*%
X70750000Y-67100000D03*
%TO.P,J2,8,GND*%
X56750000Y-67100000D03*
%TO.P,J2,9,GND*%
X42750000Y-67100000D03*
%TD*%
D10*
%TO.P,J3,1,Y*%
%TO.N,/Y_3*%
X106250000Y-88000000D03*
%TO.P,J3,2,Pb*%
%TO.N,/Pb_3*%
X92250000Y-88000000D03*
%TO.P,J3,3,Pr*%
%TO.N,/Pr_3*%
X78250000Y-88000000D03*
%TO.P,J3,4,L*%
%TO.N,/L_3*%
X113750000Y-88000000D03*
%TO.P,J3,5,R*%
%TO.N,/R_3*%
X99750000Y-88000000D03*
%TO.P,J3,6,C*%
%TO.N,unconnected-(J3-Pad6)*%
X85750000Y-88000000D03*
D11*
%TO.P,J3,7,GND*%
%TO.N,/GND_3*%
X78250000Y-80600000D03*
%TO.P,J3,8,GND*%
X92250000Y-80600000D03*
%TO.P,J3,9,GND*%
X106250000Y-80600000D03*
%TD*%
D10*
%TO.P,J5,1,Y*%
%TO.N,/Y_5*%
X149250000Y-88000000D03*
%TO.P,J5,2,Pb*%
%TO.N,/Pb_5*%
X135250000Y-88000000D03*
%TO.P,J5,3,Pr*%
%TO.N,/Pr_5*%
X121250000Y-88000000D03*
%TO.P,J5,4,L*%
%TO.N,/L_5*%
X156750000Y-88000000D03*
%TO.P,J5,5,R*%
%TO.N,/R_5*%
X142750000Y-88000000D03*
%TO.P,J5,6,C*%
%TO.N,unconnected-(J5-Pad6)*%
X128750000Y-88000000D03*
D11*
%TO.P,J5,7,GND*%
%TO.N,/GND_5*%
X121250000Y-80600000D03*
%TO.P,J5,8,GND*%
X135250000Y-80600000D03*
%TO.P,J5,9,GND*%
X149250000Y-80600000D03*
%TD*%
%TO.P,J1,9,GND*%
%TO.N,/GND_1*%
X63250000Y-80600000D03*
%TO.P,J1,8,GND*%
X49250000Y-80600000D03*
%TO.P,J1,7,GND*%
X35250000Y-80600000D03*
D10*
%TO.P,J1,6,C*%
%TO.N,unconnected-(J1-Pad6)*%
X42750000Y-88000000D03*
%TO.P,J1,5,R*%
%TO.N,/R_1*%
X56750000Y-88000000D03*
%TO.P,J1,4,L*%
%TO.N,/L_1*%
X70750000Y-88000000D03*
%TO.P,J1,3,Pr*%
%TO.N,/Pr_1*%
X35250000Y-88000000D03*
%TO.P,J1,2,Pb*%
%TO.N,/Pb_1*%
X49250000Y-88000000D03*
%TO.P,J1,1,Y*%
%TO.N,/Y_1*%
X63250000Y-88000000D03*
%TD*%
D12*
%TO.N,/R_1*%
X66720670Y-115824401D03*
%TO.N,/Y_2*%
X68000000Y-98000000D03*
%TO.N,/Pb_2*%
X68000000Y-95000000D03*
%TO.N,/Pr_2*%
X68000000Y-93500000D03*
%TO.N,/L_2*%
X68000000Y-99500000D03*
%TO.N,/R_2*%
X68000000Y-96500000D03*
%TO.N,/R_3*%
X96762299Y-116012299D03*
%TO.N,/Y_4*%
X97500000Y-99500000D03*
%TO.N,/Pb_4*%
X97500000Y-96500000D03*
%TO.N,/L_4*%
X97500000Y-101000000D03*
%TO.N,/R_4*%
X97500000Y-98000000D03*
%TD*%
D13*
%TO.N,/GND_1*%
X71500000Y-80500000D02*
X73000000Y-82000000D01*
X35250000Y-80600000D02*
X35350000Y-80500000D01*
X73000000Y-82000000D02*
X73000000Y-88600000D01*
X69800000Y-91800000D02*
X40836396Y-91800000D01*
X73000000Y-88600000D02*
X69800000Y-91800000D01*
X40836396Y-91800000D02*
X37500000Y-95136396D01*
X37500000Y-95136396D02*
X37500000Y-99318020D01*
X37500000Y-99318020D02*
X39731980Y-101550000D01*
X39731980Y-101550000D02*
X66186396Y-101550000D01*
X35350000Y-80500000D02*
X71500000Y-80500000D01*
X66186396Y-101550000D02*
X70250000Y-105613604D01*
X70250000Y-105613604D02*
X70250000Y-106000000D01*
%TO.N,/GND_3*%
X112100000Y-80600000D02*
X116000000Y-84500000D01*
X98500000Y-105477208D02*
X99727208Y-105477208D01*
X112150000Y-92850000D02*
X83650000Y-92850000D01*
X83650000Y-92850000D02*
X81500000Y-95000000D01*
X116000000Y-89000000D02*
X112150000Y-92850000D01*
X81500000Y-95000000D02*
X81500000Y-96318020D01*
X81500000Y-96318020D02*
X86731980Y-101550000D01*
X86731980Y-101550000D02*
X94572792Y-101550000D01*
X94572792Y-101550000D02*
X98500000Y-105477208D01*
X116000000Y-84500000D02*
X116000000Y-89000000D01*
X106250000Y-80600000D02*
X112100000Y-80600000D01*
X99727208Y-105477208D02*
X100250000Y-106000000D01*
X78250000Y-80600000D02*
X106250000Y-80600000D01*
%TO.N,/Y_3*%
X93750000Y-130000000D02*
X95000000Y-130000000D01*
X95000000Y-130000000D02*
X97600000Y-127400000D01*
X97600000Y-127400000D02*
X97600000Y-105850000D01*
X97600000Y-105850000D02*
X94200000Y-102450000D01*
X94200000Y-102450000D02*
X86359188Y-102450000D01*
X86359188Y-102450000D02*
X80600000Y-96690812D01*
X80600000Y-96690812D02*
X80600000Y-94627208D01*
X80600000Y-94627208D02*
X83277208Y-91950000D01*
X83277208Y-91950000D02*
X101550000Y-91950000D01*
%TO.N,/Pb_3*%
X92250000Y-88000000D02*
X90750000Y-88000000D01*
X90750000Y-88000000D02*
X87750000Y-91000000D01*
%TO.N,/Y_3*%
X101550000Y-91950000D02*
X105500000Y-88000000D01*
X105500000Y-88000000D02*
X106250000Y-88000000D01*
%TO.N,/Pb_3*%
X87750000Y-91000000D02*
X82954416Y-91000000D01*
X82954416Y-91000000D02*
X79700000Y-94254416D01*
X79700000Y-94254416D02*
X79700000Y-97063604D01*
X79700000Y-97063604D02*
X85986396Y-103350000D01*
X85986396Y-103350000D02*
X93827886Y-103350000D01*
X93827886Y-103350000D02*
X96250000Y-105772114D01*
X96250000Y-105772114D02*
X96250000Y-115500000D01*
X96250000Y-115500000D02*
X93750000Y-118000000D01*
%TO.N,/Pr_3*%
X78250000Y-88000000D02*
X79000000Y-88750000D01*
X79000000Y-88750000D02*
X79000000Y-97000000D01*
X79000000Y-97000000D02*
X85800000Y-103800000D01*
X85800000Y-103800000D02*
X91550000Y-103800000D01*
X91550000Y-103800000D02*
X93750000Y-106000000D01*
%TO.N,/L_3*%
X100250000Y-130000000D02*
X100250000Y-129500000D01*
X100250000Y-129500000D02*
X98050000Y-127300000D01*
X98050000Y-127300000D02*
X98050000Y-105663604D01*
X98050000Y-105663604D02*
X94386396Y-102000000D01*
X94386396Y-102000000D02*
X86545584Y-102000000D01*
X86545584Y-102000000D02*
X81050000Y-96504416D01*
X81050000Y-96504416D02*
X81050000Y-94813604D01*
X81050000Y-94813604D02*
X83463604Y-92400000D01*
X83463604Y-92400000D02*
X108225000Y-92400000D01*
X108225000Y-92400000D02*
X112625000Y-88000000D01*
X112625000Y-88000000D02*
X113750000Y-88000000D01*
%TO.N,/R_3*%
X96762299Y-116012299D02*
X96699520Y-115949520D01*
X96699520Y-115949520D02*
X96699520Y-105585917D01*
X96699520Y-105585917D02*
X94013604Y-102900000D01*
X94013604Y-102900000D02*
X86172792Y-102900000D01*
X86172792Y-102900000D02*
X80150000Y-96877208D01*
X80150000Y-96877208D02*
X80150000Y-94440812D01*
X80150000Y-94440812D02*
X83090812Y-91500000D01*
X83090812Y-91500000D02*
X94750000Y-91500000D01*
X94750000Y-91500000D02*
X98250000Y-88000000D01*
X98250000Y-88000000D02*
X99750000Y-88000000D01*
%TO.N,/R_1*%
X66720670Y-115824401D02*
X66450000Y-115553731D01*
X66450000Y-104813604D02*
X64536396Y-102900000D01*
X66450000Y-115553731D02*
X66450000Y-104813604D01*
X64536396Y-102900000D02*
X39172792Y-102900000D01*
X39172792Y-102900000D02*
X36150000Y-99877208D01*
X36150000Y-99877208D02*
X36150000Y-94577208D01*
X36150000Y-94577208D02*
X40277208Y-90450000D01*
X40277208Y-90450000D02*
X52800000Y-90450000D01*
X52800000Y-90450000D02*
X55250000Y-88000000D01*
%TO.N,/L_1*%
X70750000Y-88000000D02*
X69250000Y-88000000D01*
%TO.N,/R_1*%
X55250000Y-88000000D02*
X56750000Y-88000000D01*
%TO.N,/L_1*%
X69250000Y-88000000D02*
X65900000Y-91350000D01*
X65900000Y-91350000D02*
X40650000Y-91350000D01*
X40650000Y-91350000D02*
X37050000Y-94950000D01*
X37050000Y-94950000D02*
X37050000Y-99504416D01*
X37050000Y-99504416D02*
X39545584Y-102000000D01*
X39545584Y-102000000D02*
X66000000Y-102000000D01*
X66000000Y-102000000D02*
X68000000Y-104000000D01*
X68000000Y-104000000D02*
X68000000Y-127750000D01*
X68000000Y-127750000D02*
X70250000Y-130000000D01*
%TO.N,/Pr_1*%
X35250000Y-88000000D02*
X35250000Y-100250000D01*
X35250000Y-100250000D02*
X38800000Y-103800000D01*
X38800000Y-103800000D02*
X58800000Y-103800000D01*
X61000000Y-106000000D02*
X63750000Y-106000000D01*
X58800000Y-103800000D02*
X61000000Y-106000000D01*
%TO.N,/Pb_1*%
X49250000Y-88000000D02*
X47750000Y-88000000D01*
X47750000Y-88000000D02*
X45750000Y-90000000D01*
X45750000Y-90000000D02*
X40090812Y-90000000D01*
X40090812Y-90000000D02*
X35700000Y-94390812D01*
X35700000Y-94390812D02*
X35700000Y-100063604D01*
X35700000Y-100063604D02*
X38986396Y-103350000D01*
X38986396Y-103350000D02*
X64350000Y-103350000D01*
X64350000Y-103350000D02*
X66000000Y-105000000D01*
X66000000Y-105000000D02*
X66000000Y-115750000D01*
X66000000Y-115750000D02*
X63750000Y-118000000D01*
%TO.N,/Y_1*%
X63250000Y-88000000D02*
X61750000Y-88000000D01*
X61750000Y-88000000D02*
X58850000Y-90900000D01*
X58850000Y-90900000D02*
X40463604Y-90900000D01*
X40463604Y-90900000D02*
X36600000Y-94763604D01*
X36600000Y-94763604D02*
X36600000Y-99690812D01*
X36600000Y-99690812D02*
X39359188Y-102450000D01*
X39359188Y-102450000D02*
X65813604Y-102450000D01*
X65813604Y-102450000D02*
X67550000Y-104186396D01*
X67550000Y-104186396D02*
X67550000Y-126200000D01*
X67550000Y-126200000D02*
X63750000Y-130000000D01*
%TO.N,/Y_2*%
X75150000Y-105150000D02*
X75150000Y-126400000D01*
X68000000Y-98000000D02*
X75150000Y-105150000D01*
X75150000Y-126400000D02*
X78750000Y-130000000D01*
%TO.N,/Pb_2*%
X78750000Y-118000000D02*
X76050000Y-115300000D01*
X76050000Y-115300000D02*
X76050000Y-114450000D01*
X68000000Y-95000000D02*
X76050000Y-103050000D01*
X76050000Y-103050000D02*
X76050000Y-114450000D01*
%TO.N,/Pr_2*%
X76500000Y-103750000D02*
X78750000Y-106000000D01*
X76500000Y-102000000D02*
X76500000Y-103750000D01*
X68000000Y-93500000D02*
X76500000Y-102000000D01*
%TO.N,/L_2*%
X74700000Y-106200000D02*
X74700000Y-128700000D01*
X78000000Y-132000000D02*
X83250000Y-132000000D01*
X83250000Y-132000000D02*
X85250000Y-130000000D01*
X74700000Y-128700000D02*
X78000000Y-132000000D01*
X68000000Y-99500000D02*
X74700000Y-106200000D01*
%TO.N,/R_2*%
X75600000Y-118850000D02*
X76750000Y-120000000D01*
X68000000Y-96500000D02*
X75600000Y-104100000D01*
X75600000Y-104100000D02*
X75600000Y-118850000D01*
X83250000Y-120000000D02*
X85250000Y-118000000D01*
X76750000Y-120000000D02*
X83250000Y-120000000D01*
%TO.N,/GND_2*%
X70750000Y-67100000D02*
X73500000Y-69850000D01*
X81000000Y-104000000D02*
X83000000Y-106000000D01*
X83000000Y-106000000D02*
X85250000Y-106000000D01*
X73500000Y-69850000D02*
X73500000Y-96500000D01*
X73500000Y-96500000D02*
X81000000Y-104000000D01*
%TO.N,/Y_4*%
X97500000Y-99500000D02*
X98364282Y-99500000D01*
X108750000Y-130000000D02*
X105151440Y-126401440D01*
X105151440Y-106287158D02*
X105151440Y-126348560D01*
X98364282Y-99500000D02*
X105151440Y-106287158D01*
X105151440Y-126401440D02*
X105151440Y-126348560D01*
%TO.N,/Pb_4*%
X97500000Y-96500000D02*
X98500000Y-96500000D01*
X106050480Y-114800480D02*
X106050480Y-115300480D01*
X98500000Y-96500000D02*
X106050480Y-104050480D01*
X106050480Y-104050480D02*
X106050480Y-114800480D01*
X106050480Y-115300480D02*
X108750000Y-118000000D01*
%TO.N,/L_4*%
X104701920Y-128951920D02*
X104701920Y-127951920D01*
X104701920Y-107701920D02*
X104701920Y-127951920D01*
X97500000Y-101000000D02*
X98000000Y-101000000D01*
X115250000Y-130000000D02*
X113250000Y-132000000D01*
X113250000Y-132000000D02*
X107750000Y-132000000D01*
X107750000Y-132000000D02*
X104701920Y-128951920D01*
X98000000Y-101000000D02*
X104701920Y-107701920D01*
%TO.N,/R_4*%
X97500000Y-98000000D02*
X98364282Y-98000000D01*
X105600960Y-105236678D02*
X105600960Y-117850960D01*
X107750000Y-120000000D02*
X113250000Y-120000000D01*
X105600960Y-117850960D02*
X107750000Y-120000000D01*
X98364282Y-98000000D02*
X105600960Y-105236678D01*
X113250000Y-120000000D02*
X115250000Y-118000000D01*
%TO.N,/Y_out*%
X119750000Y-77000000D02*
X118399040Y-78350960D01*
X126250000Y-77000000D02*
X119750000Y-77000000D01*
X118399040Y-78350960D02*
X118399040Y-131399040D01*
X118399040Y-131399040D02*
X121000000Y-134000000D01*
X128750000Y-74500000D02*
X126250000Y-77000000D01*
X121000000Y-134000000D02*
X123750000Y-134000000D01*
%TO.N,/Pb_out*%
X123750000Y-122000000D02*
X125750000Y-124000000D01*
X137949520Y-76800480D02*
X140250000Y-74500000D01*
X140250000Y-74500000D02*
X142750000Y-74500000D01*
X131250000Y-124000000D02*
X137949520Y-117300480D01*
X125750000Y-124000000D02*
X131250000Y-124000000D01*
X137949520Y-117300480D02*
X137949520Y-76800480D01*
%TO.N,/L_out*%
X117949520Y-77800480D02*
X121250000Y-74500000D01*
X117949520Y-131425480D02*
X117949520Y-77800480D01*
X115250000Y-134000000D02*
X115375000Y-134000000D01*
X115375000Y-134000000D02*
X117949520Y-131425480D01*
%TO.N,/R_out*%
X137500000Y-117114282D02*
X132614282Y-122000000D01*
X135250000Y-74500000D02*
X137500000Y-76750000D01*
X137500000Y-76750000D02*
X137500000Y-117114282D01*
X132614282Y-122000000D02*
X130250000Y-122000000D01*
%TO.N,/GND_out*%
X133000000Y-71350000D02*
X133000000Y-107250000D01*
X128750000Y-67100000D02*
X133000000Y-71350000D01*
X133000000Y-107250000D02*
X130250000Y-110000000D01*
%TD*%
M02*
