%TF.GenerationSoftware,KiCad,Pcbnew,(6.0.7-1)-1*%
%TF.CreationDate,2023-02-08T12:42:39-08:00*%
%TF.ProjectId,RCASwitcher,52434153-7769-4746-9368-65722e6b6963,rev?*%
%TF.SameCoordinates,Original*%
%TF.FileFunction,Legend,Bot*%
%TF.FilePolarity,Positive*%
%FSLAX46Y46*%
G04 Gerber Fmt 4.6, Leading zero omitted, Abs format (unit mm)*
G04 Created by KiCad (PCBNEW (6.0.7-1)-1) date 2023-02-08 12:42:39*
%MOMM*%
%LPD*%
G01*
G04 APERTURE LIST*
%ADD10C,0.150000*%
G04 APERTURE END LIST*
D10*
%TO.C,J3*%
X92533333Y-91302380D02*
X92533333Y-92016666D01*
X92580952Y-92159523D01*
X92676190Y-92254761D01*
X92819047Y-92302380D01*
X92914285Y-92302380D01*
X92152380Y-91302380D02*
X91533333Y-91302380D01*
X91866666Y-91683333D01*
X91723809Y-91683333D01*
X91628571Y-91730952D01*
X91580952Y-91778571D01*
X91533333Y-91873809D01*
X91533333Y-92111904D01*
X91580952Y-92207142D01*
X91628571Y-92254761D01*
X91723809Y-92302380D01*
X92009523Y-92302380D01*
X92104761Y-92254761D01*
X92152380Y-92207142D01*
%TO.C,J5*%
X135533333Y-91302380D02*
X135533333Y-92016666D01*
X135580952Y-92159523D01*
X135676190Y-92254761D01*
X135819047Y-92302380D01*
X135914285Y-92302380D01*
X134580952Y-91302380D02*
X135057142Y-91302380D01*
X135104761Y-91778571D01*
X135057142Y-91730952D01*
X134961904Y-91683333D01*
X134723809Y-91683333D01*
X134628571Y-91730952D01*
X134580952Y-91778571D01*
X134533333Y-91873809D01*
X134533333Y-92111904D01*
X134580952Y-92207142D01*
X134628571Y-92254761D01*
X134723809Y-92302380D01*
X134961904Y-92302380D01*
X135057142Y-92254761D01*
X135104761Y-92207142D01*
%TO.C,J1*%
X49533333Y-91302380D02*
X49533333Y-92016666D01*
X49580952Y-92159523D01*
X49676190Y-92254761D01*
X49819047Y-92302380D01*
X49914285Y-92302380D01*
X48533333Y-92302380D02*
X49104761Y-92302380D01*
X48819047Y-92302380D02*
X48819047Y-91302380D01*
X48914285Y-91445238D01*
X49009523Y-91540476D01*
X49104761Y-91588095D01*
%TD*%
M02*
