M48
; DRILL file {KiCad (6.0.7-1)-1} date Wednesday, February 08, 2023 at 12:42:43 pm
; FORMAT={-:-/ absolute / inch / decimal}
; #@! TF.CreationDate,2023-02-08T12:42:43-08:00
; #@! TF.GenerationSoftware,Kicad,Pcbnew,(6.0.7-1)-1
; #@! TF.FileFunction,Plated,1,2,PTH
FMAT,2
INCH
; #@! TA.AperFunction,Plated,PTH,ViaDrill
T1C0.0157
; #@! TA.AperFunction,Plated,PTH,ComponentDrill
T2C0.0394
; #@! TA.AperFunction,Plated,PTH,ComponentDrill
T3C0.0591
%
G90
G05
T1
X2.6268Y-4.56
X2.6772Y-3.6811
X2.6772Y-3.7402
X2.6772Y-3.7992
X2.6772Y-3.8583
X2.6772Y-3.9173
X3.8095Y-4.5674
X3.8386Y-3.7992
X3.8386Y-3.8583
X3.8386Y-3.9173
X3.8386Y-3.9764
T3
X1.3878Y-2.9331
X1.3878Y-3.4646
X1.6831Y-2.9331
X1.6831Y-3.4646
X1.939Y-2.9331
X1.939Y-3.4646
X2.2343Y-2.9331
X2.2343Y-3.4646
X2.4902Y-2.9331
X2.4902Y-3.4646
X2.5098Y-4.1732
X2.5098Y-4.3307
X2.5098Y-4.4882
X2.5098Y-4.6457
X2.5098Y-4.8031
X2.5098Y-4.9606
X2.5098Y-5.1181
X2.5098Y-5.2756
X2.5098Y-5.4331
X2.7657Y-4.1732
X2.7657Y-4.3307
X2.7657Y-4.4882
X2.7657Y-4.6457
X2.7657Y-4.8031
X2.7657Y-4.9606
X2.7657Y-5.1181
X2.7657Y-5.2756
X2.7657Y-5.4331
X2.7854Y-2.9331
X2.7854Y-3.4646
X3.0807Y-2.9331
X3.0807Y-3.4646
X3.1004Y-4.1732
X3.1004Y-4.3307
X3.1004Y-4.4882
X3.1004Y-4.6457
X3.1004Y-4.8031
X3.1004Y-4.9606
X3.1004Y-5.1181
X3.1004Y-5.2756
X3.1004Y-5.4331
X3.3563Y-4.1732
X3.3563Y-4.3307
X3.3563Y-4.4882
X3.3563Y-4.6457
X3.3563Y-4.8031
X3.3563Y-4.9606
X3.3563Y-5.1181
X3.3563Y-5.2756
X3.3563Y-5.4331
X3.376Y-2.9331
X3.376Y-3.4646
X3.6319Y-2.9331
X3.6319Y-3.4646
X3.6909Y-4.1732
X3.6909Y-4.3307
X3.6909Y-4.4882
X3.6909Y-4.6457
X3.6909Y-4.8031
X3.6909Y-4.9606
X3.6909Y-5.1181
X3.6909Y-5.2756
X3.6909Y-5.4331
X3.9272Y-2.9331
X3.9272Y-3.4646
X3.9469Y-4.1732
X3.9469Y-4.3307
X3.9469Y-4.4882
X3.9469Y-4.6457
X3.9469Y-4.8031
X3.9469Y-4.9606
X3.9469Y-5.1181
X3.9469Y-5.2756
X3.9469Y-5.4331
X4.1831Y-2.9331
X4.1831Y-3.4646
X4.2815Y-4.1732
X4.2815Y-4.3307
X4.2815Y-4.4882
X4.2815Y-4.6457
X4.2815Y-4.8031
X4.2815Y-4.9606
X4.2815Y-5.1181
X4.2815Y-5.2756
X4.2815Y-5.4331
X4.4783Y-2.9331
X4.4783Y-3.4646
X4.5374Y-4.1732
X4.5374Y-4.3307
X4.5374Y-4.4882
X4.5374Y-4.6457
X4.5374Y-4.8031
X4.5374Y-4.9606
X4.5374Y-5.1181
X4.5374Y-5.2756
X4.5374Y-5.4331
X4.7736Y-2.9331
X4.7736Y-3.4646
X4.872Y-4.1732
X4.872Y-4.3307
X4.872Y-4.4882
X4.872Y-4.6457
X4.872Y-4.8031
X4.872Y-4.9606
X4.872Y-5.1181
X4.872Y-5.2756
X4.872Y-5.4331
X5.0689Y-2.9331
X5.0689Y-3.4646
X5.128Y-4.1732
X5.128Y-4.3307
X5.128Y-4.4882
X5.128Y-4.6457
X5.128Y-4.8031
X5.128Y-4.9606
X5.128Y-5.1181
X5.128Y-5.2756
X5.128Y-5.4331
X5.3248Y-2.9331
X5.3248Y-3.4646
X5.6201Y-2.9331
X5.6201Y-3.4646
X5.876Y-2.9331
X5.876Y-3.4646
X6.1713Y-2.9331
X6.1713Y-3.4646
T2
G00X1.3878Y-3.1929
M15
G01X1.3878Y-3.1535
M16
G05
G00X1.6831Y-2.622
M15
G01X1.6831Y-2.6614
M16
G05
G00X1.939Y-3.1929
M15
G01X1.939Y-3.1535
M16
G05
G00X2.2343Y-2.622
M15
G01X2.2343Y-2.6614
M16
G05
G00X2.4902Y-3.1929
M15
G01X2.4902Y-3.1535
M16
G05
G00X2.7854Y-2.622
M15
G01X2.7854Y-2.6614
M16
G05
G00X3.0807Y-3.1929
M15
G01X3.0807Y-3.1535
M16
G05
G00X3.376Y-2.622
M15
G01X3.376Y-2.6614
M16
G05
G00X3.6319Y-3.1929
M15
G01X3.6319Y-3.1535
M16
G05
G00X3.9272Y-2.622
M15
G01X3.9272Y-2.6614
M16
G05
G00X4.1831Y-3.1929
M15
G01X4.1831Y-3.1535
M16
G05
G00X4.4783Y-2.622
M15
G01X4.4783Y-2.6614
M16
G05
G00X4.7736Y-3.1929
M15
G01X4.7736Y-3.1535
M16
G05
G00X5.0689Y-2.622
M15
G01X5.0689Y-2.6614
M16
G05
G00X5.3248Y-3.1929
M15
G01X5.3248Y-3.1535
M16
G05
G00X5.6201Y-2.622
M15
G01X5.6201Y-2.6614
M16
G05
G00X5.876Y-3.1929
M15
G01X5.876Y-3.1535
M16
G05
G00X6.1713Y-2.622
M15
G01X6.1713Y-2.6614
M16
G05
T0
M30
