%TF.GenerationSoftware,KiCad,Pcbnew,(6.0.7-1)-1*%
%TF.CreationDate,2023-02-08T12:42:39-08:00*%
%TF.ProjectId,RCASwitcher,52434153-7769-4746-9368-65722e6b6963,rev?*%
%TF.SameCoordinates,Original*%
%TF.FileFunction,Copper,L1,Top*%
%TF.FilePolarity,Positive*%
%FSLAX46Y46*%
G04 Gerber Fmt 4.6, Leading zero omitted, Abs format (unit mm)*
G04 Created by KiCad (PCBNEW (6.0.7-1)-1) date 2023-02-08 12:42:39*
%MOMM*%
%LPD*%
G01*
G04 APERTURE LIST*
%TA.AperFunction,ComponentPad*%
%ADD10C,2.500000*%
%TD*%
%TA.AperFunction,ComponentPad*%
%ADD11O,2.000000X3.000000*%
%TD*%
%TA.AperFunction,ViaPad*%
%ADD12C,0.800000*%
%TD*%
%TA.AperFunction,Conductor*%
%ADD13C,0.250000*%
%TD*%
G04 APERTURE END LIST*
D10*
%TO.P,SW3,1,A*%
%TO.N,unconnected-(SW3-Pad1)*%
X93750000Y-138000000D03*
%TO.P,SW3,2,OA*%
%TO.N,/Y_out*%
X93750000Y-134000000D03*
%TO.P,SW3,3,C*%
%TO.N,/Y_3*%
X93750000Y-130000000D03*
%TO.P,SW3,4,A*%
%TO.N,unconnected-(SW3-Pad4)*%
X93750000Y-126000000D03*
%TO.P,SW3,5,B*%
%TO.N,/Pb_out*%
X93750000Y-122000000D03*
%TO.P,SW3,6,C*%
%TO.N,/Pb_3*%
X93750000Y-118000000D03*
%TO.P,SW3,7,A*%
%TO.N,unconnected-(SW3-Pad7)*%
X93750000Y-114000000D03*
%TO.P,SW3,8,B*%
%TO.N,/Pr_out*%
X93750000Y-110000000D03*
%TO.P,SW3,9,C*%
%TO.N,/Pr_3*%
X93750000Y-106000000D03*
%TO.P,SW3,10,A*%
%TO.N,unconnected-(SW3-Pad10)*%
X100250000Y-138000000D03*
%TO.P,SW3,11,C*%
%TO.N,/L_out*%
X100250000Y-134000000D03*
%TO.P,SW3,12,C*%
%TO.N,/L_3*%
X100250000Y-130000000D03*
%TO.P,SW3,13,A*%
%TO.N,unconnected-(SW3-Pad13)*%
X100250000Y-126000000D03*
%TO.P,SW3,14,B*%
%TO.N,/R_out*%
X100250000Y-122000000D03*
%TO.P,SW3,15,C*%
%TO.N,/R_3*%
X100250000Y-118000000D03*
%TO.P,SW3,16,A*%
%TO.N,unconnected-(SW3-Pad16)*%
X100250000Y-114000000D03*
%TO.P,SW3,17,B*%
%TO.N,/GND_out*%
X100250000Y-110000000D03*
%TO.P,SW3,18,C*%
%TO.N,/GND_3*%
X100250000Y-106000000D03*
%TD*%
%TO.P,SW2,1,A*%
%TO.N,unconnected-(SW2-Pad1)*%
X78750000Y-138000000D03*
%TO.P,SW2,2,OA*%
%TO.N,/Y_out*%
X78750000Y-134000000D03*
%TO.P,SW2,3,C*%
%TO.N,/Y_2*%
X78750000Y-130000000D03*
%TO.P,SW2,4,A*%
%TO.N,unconnected-(SW2-Pad4)*%
X78750000Y-126000000D03*
%TO.P,SW2,5,B*%
%TO.N,/Pb_out*%
X78750000Y-122000000D03*
%TO.P,SW2,6,C*%
%TO.N,/Pb_2*%
X78750000Y-118000000D03*
%TO.P,SW2,7,A*%
%TO.N,unconnected-(SW2-Pad7)*%
X78750000Y-114000000D03*
%TO.P,SW2,8,B*%
%TO.N,/Pr_out*%
X78750000Y-110000000D03*
%TO.P,SW2,9,C*%
%TO.N,/Pr_2*%
X78750000Y-106000000D03*
%TO.P,SW2,10,A*%
%TO.N,unconnected-(SW2-Pad10)*%
X85250000Y-138000000D03*
%TO.P,SW2,11,C*%
%TO.N,/L_out*%
X85250000Y-134000000D03*
%TO.P,SW2,12,C*%
%TO.N,/L_2*%
X85250000Y-130000000D03*
%TO.P,SW2,13,A*%
%TO.N,unconnected-(SW2-Pad13)*%
X85250000Y-126000000D03*
%TO.P,SW2,14,B*%
%TO.N,/R_out*%
X85250000Y-122000000D03*
%TO.P,SW2,15,C*%
%TO.N,/R_2*%
X85250000Y-118000000D03*
%TO.P,SW2,16,A*%
%TO.N,unconnected-(SW2-Pad16)*%
X85250000Y-114000000D03*
%TO.P,SW2,17,B*%
%TO.N,/GND_out*%
X85250000Y-110000000D03*
%TO.P,SW2,18,C*%
%TO.N,/GND_2*%
X85250000Y-106000000D03*
%TD*%
%TO.P,J4,1,Y*%
%TO.N,/Y_4*%
X85750000Y-74500000D03*
%TO.P,J4,2,Pb*%
%TO.N,/Pb_4*%
X99750000Y-74500000D03*
%TO.P,J4,3,Pr*%
%TO.N,/Pr_4*%
X113750000Y-74500000D03*
%TO.P,J4,4,L*%
%TO.N,/L_4*%
X78250000Y-74500000D03*
%TO.P,J4,5,R*%
%TO.N,/R_4*%
X92250000Y-74500000D03*
%TO.P,J4,6,C*%
%TO.N,unconnected-(J4-Pad6)*%
X106250000Y-74500000D03*
D11*
%TO.P,J4,7,GND*%
%TO.N,/GND_4*%
X113750000Y-67100000D03*
%TO.P,J4,8,GND*%
X99750000Y-67100000D03*
%TO.P,J4,9,GND*%
X85750000Y-67100000D03*
%TD*%
D10*
%TO.P,SW4,1,A*%
%TO.N,unconnected-(SW4-Pad1)*%
X108750000Y-138000000D03*
%TO.P,SW4,2,OA*%
%TO.N,/Y_out*%
X108750000Y-134000000D03*
%TO.P,SW4,3,C*%
%TO.N,/Y_4*%
X108750000Y-130000000D03*
%TO.P,SW4,4,A*%
%TO.N,unconnected-(SW4-Pad4)*%
X108750000Y-126000000D03*
%TO.P,SW4,5,B*%
%TO.N,/Pb_out*%
X108750000Y-122000000D03*
%TO.P,SW4,6,C*%
%TO.N,/Pb_4*%
X108750000Y-118000000D03*
%TO.P,SW4,7,A*%
%TO.N,unconnected-(SW4-Pad7)*%
X108750000Y-114000000D03*
%TO.P,SW4,8,B*%
%TO.N,/Pr_out*%
X108750000Y-110000000D03*
%TO.P,SW4,9,C*%
%TO.N,/Pr_4*%
X108750000Y-106000000D03*
%TO.P,SW4,10,A*%
%TO.N,unconnected-(SW4-Pad10)*%
X115250000Y-138000000D03*
%TO.P,SW4,11,C*%
%TO.N,/L_out*%
X115250000Y-134000000D03*
%TO.P,SW4,12,C*%
%TO.N,/L_4*%
X115250000Y-130000000D03*
%TO.P,SW4,13,A*%
%TO.N,unconnected-(SW4-Pad13)*%
X115250000Y-126000000D03*
%TO.P,SW4,14,B*%
%TO.N,/R_out*%
X115250000Y-122000000D03*
%TO.P,SW4,15,C*%
%TO.N,/R_4*%
X115250000Y-118000000D03*
%TO.P,SW4,16,A*%
%TO.N,unconnected-(SW4-Pad16)*%
X115250000Y-114000000D03*
%TO.P,SW4,17,B*%
%TO.N,/GND_out*%
X115250000Y-110000000D03*
%TO.P,SW4,18,C*%
%TO.N,/GND_4*%
X115250000Y-106000000D03*
%TD*%
%TO.P,SW5,1,A*%
%TO.N,unconnected-(SW5-Pad1)*%
X123750000Y-138000000D03*
%TO.P,SW5,2,OA*%
%TO.N,/Y_out*%
X123750000Y-134000000D03*
%TO.P,SW5,3,C*%
%TO.N,/Y_5*%
X123750000Y-130000000D03*
%TO.P,SW5,4,A*%
%TO.N,unconnected-(SW5-Pad4)*%
X123750000Y-126000000D03*
%TO.P,SW5,5,B*%
%TO.N,/Pb_out*%
X123750000Y-122000000D03*
%TO.P,SW5,6,C*%
%TO.N,/Pb_5*%
X123750000Y-118000000D03*
%TO.P,SW5,7,A*%
%TO.N,unconnected-(SW5-Pad7)*%
X123750000Y-114000000D03*
%TO.P,SW5,8,B*%
%TO.N,/Pr_out*%
X123750000Y-110000000D03*
%TO.P,SW5,9,C*%
%TO.N,/Pr_5*%
X123750000Y-106000000D03*
%TO.P,SW5,10,A*%
%TO.N,unconnected-(SW5-Pad10)*%
X130250000Y-138000000D03*
%TO.P,SW5,11,C*%
%TO.N,/L_out*%
X130250000Y-134000000D03*
%TO.P,SW5,12,C*%
%TO.N,/L_5*%
X130250000Y-130000000D03*
%TO.P,SW5,13,A*%
%TO.N,unconnected-(SW5-Pad13)*%
X130250000Y-126000000D03*
%TO.P,SW5,14,B*%
%TO.N,/R_out*%
X130250000Y-122000000D03*
%TO.P,SW5,15,C*%
%TO.N,/R_5*%
X130250000Y-118000000D03*
%TO.P,SW5,16,A*%
%TO.N,unconnected-(SW5-Pad16)*%
X130250000Y-114000000D03*
%TO.P,SW5,17,B*%
%TO.N,/GND_out*%
X130250000Y-110000000D03*
%TO.P,SW5,18,C*%
%TO.N,/GND_5*%
X130250000Y-106000000D03*
%TD*%
%TO.P,J6,1,Y*%
%TO.N,/Y_out*%
X128750000Y-74500000D03*
%TO.P,J6,2,Pb*%
%TO.N,/Pb_out*%
X142750000Y-74500000D03*
%TO.P,J6,3,Pr*%
%TO.N,/Pr_out*%
X156750000Y-74500000D03*
%TO.P,J6,4,L*%
%TO.N,/L_out*%
X121250000Y-74500000D03*
%TO.P,J6,5,R*%
%TO.N,/R_out*%
X135250000Y-74500000D03*
%TO.P,J6,6,C*%
%TO.N,unconnected-(J6-Pad6)*%
X149250000Y-74500000D03*
D11*
%TO.P,J6,7,GND*%
%TO.N,/GND_out*%
X156750000Y-67100000D03*
%TO.P,J6,8,GND*%
X142750000Y-67100000D03*
%TO.P,J6,9,GND*%
X128750000Y-67100000D03*
%TD*%
D10*
%TO.P,SW1,1,A*%
%TO.N,unconnected-(SW1-Pad1)*%
X63750000Y-138000000D03*
%TO.P,SW1,2,OA*%
%TO.N,/Y_out*%
X63750000Y-134000000D03*
%TO.P,SW1,3,C*%
%TO.N,/Y_1*%
X63750000Y-130000000D03*
%TO.P,SW1,4,A*%
%TO.N,unconnected-(SW1-Pad4)*%
X63750000Y-126000000D03*
%TO.P,SW1,5,B*%
%TO.N,/Pb_out*%
X63750000Y-122000000D03*
%TO.P,SW1,6,C*%
%TO.N,/Pb_1*%
X63750000Y-118000000D03*
%TO.P,SW1,7,A*%
%TO.N,unconnected-(SW1-Pad7)*%
X63750000Y-114000000D03*
%TO.P,SW1,8,B*%
%TO.N,/Pr_out*%
X63750000Y-110000000D03*
%TO.P,SW1,9,C*%
%TO.N,/Pr_1*%
X63750000Y-106000000D03*
%TO.P,SW1,10,A*%
%TO.N,unconnected-(SW1-Pad10)*%
X70250000Y-138000000D03*
%TO.P,SW1,11,C*%
%TO.N,/L_out*%
X70250000Y-134000000D03*
%TO.P,SW1,12,C*%
%TO.N,/L_1*%
X70250000Y-130000000D03*
%TO.P,SW1,13,A*%
%TO.N,unconnected-(SW1-Pad13)*%
X70250000Y-126000000D03*
%TO.P,SW1,14,B*%
%TO.N,/R_out*%
X70250000Y-122000000D03*
%TO.P,SW1,15,C*%
%TO.N,/R_1*%
X70250000Y-118000000D03*
%TO.P,SW1,16,A*%
%TO.N,unconnected-(SW1-Pad16)*%
X70250000Y-114000000D03*
%TO.P,SW1,17,B*%
%TO.N,/GND_out*%
X70250000Y-110000000D03*
%TO.P,SW1,18,C*%
%TO.N,/GND_1*%
X70250000Y-106000000D03*
%TD*%
%TO.P,J2,1,Y*%
%TO.N,/Y_2*%
X42750000Y-74500000D03*
%TO.P,J2,2,Pb*%
%TO.N,/Pb_2*%
X56750000Y-74500000D03*
%TO.P,J2,3,Pr*%
%TO.N,/Pr_2*%
X70750000Y-74500000D03*
%TO.P,J2,4,L*%
%TO.N,/L_2*%
X35250000Y-74500000D03*
%TO.P,J2,5,R*%
%TO.N,/R_2*%
X49250000Y-74500000D03*
%TO.P,J2,6,C*%
%TO.N,unconnected-(J2-Pad6)*%
X63250000Y-74500000D03*
D11*
%TO.P,J2,7,GND*%
%TO.N,/GND_2*%
X70750000Y-67100000D03*
%TO.P,J2,8,GND*%
X56750000Y-67100000D03*
%TO.P,J2,9,GND*%
X42750000Y-67100000D03*
%TD*%
D10*
%TO.P,J3,1,Y*%
%TO.N,/Y_3*%
X106250000Y-88000000D03*
%TO.P,J3,2,Pb*%
%TO.N,/Pb_3*%
X92250000Y-88000000D03*
%TO.P,J3,3,Pr*%
%TO.N,/Pr_3*%
X78250000Y-88000000D03*
%TO.P,J3,4,L*%
%TO.N,/L_3*%
X113750000Y-88000000D03*
%TO.P,J3,5,R*%
%TO.N,/R_3*%
X99750000Y-88000000D03*
%TO.P,J3,6,C*%
%TO.N,unconnected-(J3-Pad6)*%
X85750000Y-88000000D03*
D11*
%TO.P,J3,7,GND*%
%TO.N,/GND_3*%
X78250000Y-80600000D03*
%TO.P,J3,8,GND*%
X92250000Y-80600000D03*
%TO.P,J3,9,GND*%
X106250000Y-80600000D03*
%TD*%
D10*
%TO.P,J5,1,Y*%
%TO.N,/Y_5*%
X149250000Y-88000000D03*
%TO.P,J5,2,Pb*%
%TO.N,/Pb_5*%
X135250000Y-88000000D03*
%TO.P,J5,3,Pr*%
%TO.N,/Pr_5*%
X121250000Y-88000000D03*
%TO.P,J5,4,L*%
%TO.N,/L_5*%
X156750000Y-88000000D03*
%TO.P,J5,5,R*%
%TO.N,/R_5*%
X142750000Y-88000000D03*
%TO.P,J5,6,C*%
%TO.N,unconnected-(J5-Pad6)*%
X128750000Y-88000000D03*
D11*
%TO.P,J5,7,GND*%
%TO.N,/GND_5*%
X121250000Y-80600000D03*
%TO.P,J5,8,GND*%
X135250000Y-80600000D03*
%TO.P,J5,9,GND*%
X149250000Y-80600000D03*
%TD*%
%TO.P,J1,9,GND*%
%TO.N,/GND_1*%
X63250000Y-80600000D03*
%TO.P,J1,8,GND*%
X49250000Y-80600000D03*
%TO.P,J1,7,GND*%
X35250000Y-80600000D03*
D10*
%TO.P,J1,6,C*%
%TO.N,unconnected-(J1-Pad6)*%
X42750000Y-88000000D03*
%TO.P,J1,5,R*%
%TO.N,/R_1*%
X56750000Y-88000000D03*
%TO.P,J1,4,L*%
%TO.N,/L_1*%
X70750000Y-88000000D03*
%TO.P,J1,3,Pr*%
%TO.N,/Pr_1*%
X35250000Y-88000000D03*
%TO.P,J1,2,Pb*%
%TO.N,/Pb_1*%
X49250000Y-88000000D03*
%TO.P,J1,1,Y*%
%TO.N,/Y_1*%
X63250000Y-88000000D03*
%TD*%
D12*
%TO.N,/R_1*%
X66720670Y-115824401D03*
%TO.N,/Y_2*%
X68000000Y-98000000D03*
%TO.N,/Pb_2*%
X68000000Y-95000000D03*
%TO.N,/Pr_2*%
X68000000Y-93500000D03*
%TO.N,/L_2*%
X68000000Y-99500000D03*
%TO.N,/R_2*%
X68000000Y-96500000D03*
%TO.N,/R_3*%
X96762299Y-116012299D03*
%TO.N,/Y_4*%
X97500000Y-99500000D03*
%TO.N,/Pb_4*%
X97500000Y-96500000D03*
%TO.N,/L_4*%
X97500000Y-101000000D03*
%TO.N,/R_4*%
X97500000Y-98000000D03*
%TD*%
D13*
%TO.N,/Pb_5*%
X125750000Y-116000000D02*
X123750000Y-118000000D01*
%TO.N,/Y_5*%
X149250000Y-88000000D02*
X149250000Y-110000000D01*
%TO.N,/GND_5*%
X149250000Y-80600000D02*
X121250000Y-80600000D01*
%TO.N,/Y_5*%
X149250000Y-110000000D02*
X131250000Y-128000000D01*
X131250000Y-128000000D02*
X125750000Y-128000000D01*
X125750000Y-128000000D02*
X123750000Y-130000000D01*
%TO.N,/Pb_5*%
X135250000Y-88000000D02*
X135250000Y-112000000D01*
X135250000Y-112000000D02*
X131250000Y-116000000D01*
X131250000Y-116000000D02*
X125750000Y-116000000D01*
%TO.N,/Pr_5*%
X121250000Y-103500000D02*
X123750000Y-106000000D01*
X121250000Y-88000000D02*
X121250000Y-103500000D01*
%TO.N,/L_5*%
X156750000Y-88000000D02*
X156750000Y-103750000D01*
X156750000Y-103750000D02*
X130500000Y-130000000D01*
X130500000Y-130000000D02*
X130250000Y-130000000D01*
%TO.N,/R_5*%
X142750000Y-88000000D02*
X144250000Y-88000000D01*
X144250000Y-88000000D02*
X147500000Y-91250000D01*
X147500000Y-91250000D02*
X147500000Y-110500000D01*
X147500000Y-110500000D02*
X140000000Y-118000000D01*
X140000000Y-118000000D02*
X130250000Y-118000000D01*
%TO.N,/GND_5*%
X121250000Y-80600000D02*
X121250000Y-82238551D01*
X121250000Y-82238551D02*
X123750000Y-84738551D01*
X123750000Y-84738551D02*
X123750000Y-99500000D01*
X123750000Y-99500000D02*
X130250000Y-106000000D01*
%TO.N,/R_1*%
X68074401Y-115824401D02*
X70250000Y-118000000D01*
X66720670Y-115824401D02*
X68074401Y-115824401D01*
%TO.N,/Y_2*%
X45250000Y-92250000D02*
X51000000Y-98000000D01*
X51000000Y-98000000D02*
X68000000Y-98000000D01*
X45250000Y-77000000D02*
X45250000Y-92250000D01*
X42750000Y-74500000D02*
X45250000Y-77000000D01*
%TO.N,/Pb_2*%
X59000000Y-76750000D02*
X59000000Y-92000000D01*
X56750000Y-74500000D02*
X59000000Y-76750000D01*
X62000000Y-95000000D02*
X68000000Y-95000000D01*
X59000000Y-92000000D02*
X62000000Y-95000000D01*
%TO.N,/Pr_2*%
X67500000Y-74500000D02*
X65500000Y-76500000D01*
X70750000Y-74500000D02*
X67500000Y-74500000D01*
X67000000Y-93500000D02*
X68000000Y-93500000D01*
X65500000Y-76500000D02*
X65500000Y-92000000D01*
X65500000Y-92000000D02*
X67000000Y-93500000D01*
%TO.N,/L_2*%
X39750000Y-79000000D02*
X39750000Y-92250000D01*
X39750000Y-92250000D02*
X47000000Y-99500000D01*
X47000000Y-99500000D02*
X68000000Y-99500000D01*
X35250000Y-74500000D02*
X39750000Y-79000000D01*
%TO.N,/R_2*%
X51500000Y-76750000D02*
X51500000Y-92000000D01*
X51500000Y-92000000D02*
X56000000Y-96500000D01*
X49250000Y-74500000D02*
X51500000Y-76750000D01*
X56000000Y-96500000D02*
X68000000Y-96500000D01*
%TO.N,/GND_2*%
X42750000Y-67100000D02*
X70750000Y-67100000D01*
%TO.N,/R_3*%
X96762299Y-116012299D02*
X98262299Y-116012299D01*
X98262299Y-116012299D02*
X100250000Y-118000000D01*
%TO.N,/Y_4*%
X88000000Y-76750000D02*
X85750000Y-74500000D01*
X95500000Y-99500000D02*
X88000000Y-92000000D01*
X88000000Y-92000000D02*
X88000000Y-76750000D01*
X97500000Y-99500000D02*
X95500000Y-99500000D01*
%TO.N,/Pb_4*%
X97500000Y-93500000D02*
X102000000Y-89000000D01*
X102000000Y-89000000D02*
X102000000Y-76750000D01*
X97500000Y-96500000D02*
X97500000Y-93500000D01*
X102000000Y-76750000D02*
X99750000Y-74500000D01*
%TO.N,/Pr_4*%
X103500000Y-99500000D02*
X103500000Y-86000000D01*
X103500000Y-86000000D02*
X113750000Y-75750000D01*
X108750000Y-106000000D02*
X108750000Y-104750000D01*
X108750000Y-104750000D02*
X103500000Y-99500000D01*
X113750000Y-75750000D02*
X113750000Y-74500000D01*
%TO.N,/L_4*%
X81000000Y-77250000D02*
X78250000Y-74500000D01*
X97500000Y-101000000D02*
X90000000Y-101000000D01*
X81000000Y-92000000D02*
X81000000Y-77250000D01*
X90000000Y-101000000D02*
X81000000Y-92000000D01*
%TO.N,/R_4*%
X96000000Y-98000000D02*
X94500000Y-96500000D01*
X97500000Y-98000000D02*
X96000000Y-98000000D01*
X94500000Y-96500000D02*
X94500000Y-76750000D01*
X94500000Y-76750000D02*
X92250000Y-74500000D01*
%TO.N,/GND_4*%
X85750000Y-67100000D02*
X113750000Y-67100000D01*
X113750000Y-70250000D02*
X115750000Y-72250000D01*
X115750000Y-105500000D02*
X115250000Y-106000000D01*
X115750000Y-72250000D02*
X115750000Y-105500000D01*
X113750000Y-67100000D02*
X113750000Y-70250000D01*
%TO.N,/Y_out*%
X93750000Y-134000000D02*
X95750000Y-132000000D01*
X108750000Y-134000000D02*
X110750000Y-132000000D01*
X110750000Y-132000000D02*
X121750000Y-132000000D01*
X78750000Y-134000000D02*
X80750000Y-132000000D01*
X65750000Y-132000000D02*
X76750000Y-132000000D01*
X95750000Y-132000000D02*
X106750000Y-132000000D01*
X121750000Y-132000000D02*
X123750000Y-134000000D01*
X80750000Y-132000000D02*
X91750000Y-132000000D01*
X106750000Y-132000000D02*
X108750000Y-134000000D01*
X91750000Y-132000000D02*
X93750000Y-134000000D01*
X63750000Y-134000000D02*
X65750000Y-132000000D01*
X76750000Y-132000000D02*
X78750000Y-134000000D01*
%TO.N,/Pb_out*%
X108750000Y-122000000D02*
X110750000Y-120000000D01*
X76750000Y-120000000D02*
X78750000Y-122000000D01*
X63750000Y-122000000D02*
X65750000Y-120000000D01*
X106750000Y-120000000D02*
X108750000Y-122000000D01*
X121750000Y-120000000D02*
X123750000Y-122000000D01*
X110750000Y-120000000D02*
X121750000Y-120000000D01*
X78750000Y-122000000D02*
X80750000Y-120000000D01*
X80750000Y-120000000D02*
X91750000Y-120000000D01*
X65750000Y-120000000D02*
X76750000Y-120000000D01*
X95750000Y-120000000D02*
X106750000Y-120000000D01*
X91750000Y-120000000D02*
X93750000Y-122000000D01*
X93750000Y-122000000D02*
X95750000Y-120000000D01*
%TO.N,/Pr_out*%
X80750000Y-108000000D02*
X91750000Y-108000000D01*
X63750000Y-110000000D02*
X65750000Y-108000000D01*
X65750000Y-108000000D02*
X76750000Y-108000000D01*
X78750000Y-110000000D02*
X80750000Y-108000000D01*
X121750000Y-108000000D02*
X123750000Y-110000000D01*
X106750000Y-108000000D02*
X108750000Y-110000000D01*
X93750000Y-110000000D02*
X95750000Y-108000000D01*
X110750000Y-108000000D02*
X121750000Y-108000000D01*
X91750000Y-108000000D02*
X93750000Y-110000000D01*
X121000000Y-71750000D02*
X119000000Y-73750000D01*
X156750000Y-74500000D02*
X154000000Y-71750000D01*
X154000000Y-71750000D02*
X121000000Y-71750000D01*
X76750000Y-108000000D02*
X78750000Y-110000000D01*
X119000000Y-73750000D02*
X119000000Y-105250000D01*
X106750000Y-108000000D02*
X95750000Y-108000000D01*
X108750000Y-110000000D02*
X110750000Y-108000000D01*
X119000000Y-105250000D02*
X123750000Y-110000000D01*
%TO.N,/L_out*%
X87250000Y-136000000D02*
X98250000Y-136000000D01*
X100250000Y-134000000D02*
X102250000Y-136000000D01*
X85250000Y-134000000D02*
X87250000Y-136000000D01*
X102250000Y-136000000D02*
X113250000Y-136000000D01*
X72250000Y-136000000D02*
X83250000Y-136000000D01*
X128250000Y-136000000D02*
X130250000Y-134000000D01*
X117250000Y-136000000D02*
X128250000Y-136000000D01*
X98250000Y-136000000D02*
X100250000Y-134000000D01*
X113250000Y-136000000D02*
X115250000Y-134000000D01*
X115250000Y-134000000D02*
X117250000Y-136000000D01*
X70250000Y-134000000D02*
X72250000Y-136000000D01*
X83250000Y-136000000D02*
X85250000Y-134000000D01*
%TO.N,/R_out*%
X70250000Y-122000000D02*
X72250000Y-124000000D01*
X102250000Y-124000000D02*
X113250000Y-124000000D01*
X72250000Y-124000000D02*
X83250000Y-124000000D01*
X98250000Y-124000000D02*
X100250000Y-122000000D01*
X85250000Y-122000000D02*
X87250000Y-124000000D01*
X117250000Y-124000000D02*
X128250000Y-124000000D01*
X87250000Y-124000000D02*
X98250000Y-124000000D01*
X113250000Y-124000000D02*
X115250000Y-122000000D01*
X83250000Y-124000000D02*
X85250000Y-122000000D01*
X100250000Y-122000000D02*
X102250000Y-124000000D01*
X115250000Y-122000000D02*
X117250000Y-124000000D01*
X128250000Y-124000000D02*
X130250000Y-122000000D01*
%TO.N,/GND_out*%
X128250000Y-112000000D02*
X130250000Y-110000000D01*
X100250000Y-110000000D02*
X102250000Y-112000000D01*
X85250000Y-110000000D02*
X87250000Y-112000000D01*
X72250000Y-112000000D02*
X83250000Y-112000000D01*
X87250000Y-112000000D02*
X99000000Y-112000000D01*
X99000000Y-112000000D02*
X100250000Y-110750000D01*
X70250000Y-110000000D02*
X72125000Y-111875000D01*
X128750000Y-67100000D02*
X156750000Y-67100000D01*
X117250000Y-112000000D02*
X128250000Y-112000000D01*
X83250000Y-112000000D02*
X85250000Y-110000000D01*
X100250000Y-110750000D02*
X100250000Y-110000000D01*
X72125000Y-111875000D02*
X72250000Y-112000000D01*
X102250000Y-112000000D02*
X113250000Y-112000000D01*
X113250000Y-112000000D02*
X115250000Y-110000000D01*
X115250000Y-110000000D02*
X117250000Y-112000000D01*
%TD*%
M02*
